# AST/ASF file generated using VICON BodyLanguage
# -----------------------------------------------
:version 1.10
:name VICON
:units
  mass 1.0
  length 0.45
  angle deg
:documentation
   .ast/.asf automatically generated from VICON data using
   VICON BodyBuilder and BodyLanguage model FoxedUp or BRILLIANT.MOD
:root
   order TX TY TZ RX RY RZ
   axis XYZ
   position 0 0 0  
   orientation 0 0 0 
:bonedata
  begin
     id 1 
     name lhipjoint
     direction 0.710188 -0.616876 0.339259 
     length 2.5669 
     axis 0 0 0  XYZ
  end
  begin
     id 2 
     name lfemur
     direction 0.34202 -0.939693 0  
     length 7.12796  
     axis 0 0 20  XYZ
    dof rx ry rz
    limits (-160.0 20.0)
           (-70.0 70.0)
           (-60.0 70.0)
  end
  begin
     id 3 
     name ltibia
     direction 0.34202 -0.939693 0   
     length 7.58108   
     axis 0 0 20   XYZ
    dof rx
    limits (-10.0 170.0)
  end
  begin
     id 4 
     name lfoot
     direction 0.0669471 -0.183936 0.980656   
     length 2.17365   
     axis -90 7.62852e-016 20   XYZ
    dof rx rz
    limits (-45.0 90.0)
           (-70.0 20.0)
  end
  begin
     id 5 
     name ltoes
     direction 1.53508e-011 -4.21705e-011 1   
     length 1.09427   
     axis -90 7.62852e-016 20   XYZ
    dof rx
    limits (-90.0 20.0)
  end
  begin
     id 6 
     name rhipjoint
     direction -0.700191 -0.625589 0.34405   
     length 2.53115  
     axis 0 0 0  XYZ 
  end
  begin
     id 7 
     name rfemur
     direction -0.34202 -0.939693 0   
     length 7.33006   
     axis 0 0 -20   XYZ
    dof rx ry rz
    limits (-160.0 20.0)
           (-70.0 70.0)
           (-70.0 60.0)
  end
  begin
     id 8 
     name rtibia
     direction -0.34202 -0.939693 0   
     length 7.64926   
     axis 0 0 -20   XYZ
    dof rx
    limits (-10.0 170.0)
 end
 begin
     id 9 
     name rfoot
     direction -0.0688927 -0.189281 0.979503   
     length 2.20493  
     axis -90 -7.62852e-016 -20   XYZ
    dof rx rz
    limits (-45.0 90.0)
           (-20.0 70.0)
  end
  begin
     id 10 
     name rtoes
     direction -1.53567e-011 -4.21933e-011 1   
     length 1.10919   
     axis -90 -7.62852e-016 -20   XYZ
    dof rx
    limits (-90.0 20.0)
  end
  begin
     id 11 
     name lowerback
     direction -0.0167868 0.989873 -0.140959   
     length 2.14596   
     axis 0 0 0   XYZ
    dof rx ry rz
    limits (-20.0 45.0)
           (-30.0 30.0)
           (-30.0 30.0)
  end
  begin
     id 12 
     name upperback
     direction 0.0129109 0.998033 0.0613525   
     length 2.10457   
     axis 0 0 0   XYZ
    dof rx ry rz
    limits (-20.0 45.0)
           (-30.0 30.0)
           (-30.0 30.0)
  end
  begin
     id 13 
     name thorax
     direction 0.0177047 0.991119 0.131797   
     length 2.17652   
     axis 0 0 0   XYZ
    dof rx ry rz
    limits (-20.0 45.0)
           (-30.0 30.0)
           (-30.0 30.0)
  end
  begin
     id 14 
     name lowerneck
     direction -0.0336893 0.997548 0.0613464   
     length 1.8912   
     axis 0 0 0   XYZ
    dof rx ry rz
    limits (-20.0 45.0)
           (-30.0 30.0)
           (-30.0 30.0)
  end
  begin
     id 15 
     name upperneck
     direction 0.0435909 0.997179 -0.0611028   
     length 1.8829   
     axis 0 0 0   XYZ
    dof rx ry rz
    limits (-20.0 45.0)
           (-30.0 30.0)
           (-30.0 30.0)
  end
  begin
     id 16
     name head
     direction 0.0175076 0.999444 -0.0283782  
     length 1.93197  
     axis 0 0 0   XYZ
    dof rx ry rz
    limits (-20.0 45.0)
           (-30.0 30.0)
           (-30.0 30.0)
  end
  begin
     id 17 
     name lclavicle
     direction 0.919164 0.389875 0.0559876  
     length 3.60004  
     axis 0 0 0   XYZ
    dof ry rz
    limits (-20.0 10.0)
           (0.0 20.0)
  end
  begin
     id 18 
     name lhumerus
     direction 1 -4.48958e-011 6.89191e-027   
     length 5.43301   
     axis 180 -30 -90   XYZ
    dof rx ry rz
    limits (-60.0 90.0)
           (-90.0 90.0)
           (-90.0 90.0)
  end
  begin
     id 19
     name lradius
     direction 1 -4.4897e-011 3.24727e-027   
     length 3.15936   
     axis 180 -30 -90   XYZ
    dof rx
    limits (-10.0 170.0)
  end
  begin
     id 20
     name lwrist
     direction 1 -4.4897e-011 9.00228e-027   
     length 1.57968   
     axis -6.29373e-015 90 90   XYZ
    dof ry
    limits (-180.0 0.0)
 end
  begin
     id 21 
     name lhand
     direction 1 -4.48968e-011 1.80042e-026   
     length 0.712827   
     axis -1.14882e-014 90 90   XYZ
    dof rx rz
    limits (-90.0 90.0)
           (-45.0 45.0)
  end
  begin
     id 22 
     name lfingers
     direction 1 -4.49019e-011 3.60267e-026   
     length 0.574699   
     axis -2.29769e-014 90 90   XYZ
    dof rx
    limits (0.0 90.0)
  end
  begin
     id 23
     name lthumb
     direction 0.707107 -6.3498e-011 0.707107   
     length 0.825157   
     axis -90 45 5.37419e-014   XYZ
    dof rx rz
    limits (-45.0 45.0)
           (-45.0 45.0)
  end
  begin
     id 24 
     name rclavicle
     direction -0.890334 0.455305 -0.00132111   
     length 3.51494  
     axis 0 0 0   XYZ 
    dof ry rz
    limits (-10.0 20.0)
           (-20.0 0.0)
  end
  begin
     id 25 
     name rhumerus
     direction -1 -4.48967e-011 5.07175e-028  
     length 5.34194   
     axis 180 30 90   XYZ
    dof rx ry rz
    limits (-90.0 60.0)
           (-90.0 90.0)
           (-90.0 90.0)
  end
  begin
     id 26 
     name rradius
     direction -1 -4.48955e-011 3.30467e-027   
     length 3.19351   
     axis 180 30 90   XYZ
    dof rx
    limits (-10.0 170.0)
  end
  begin
     id 27 
     name rwrist
     direction -1 -4.48968e-011 9.00208e-027   
     length 1.59676   
     axis -6.29373e-015 -90 -90   XYZ
    dof ry
    limits (-180.0 0.0)
  end
  begin
     id 28
     name rhand
     direction -1 -4.49e-011 1.80099e-026   
     length 0.743862   
     axis -1.14882e-014 -90 -90   XYZ
    dof rx rz
    limits (-90.0 90.0)
           (-45.0 45.0)
  end
  begin
     id 29
     name rfingers
     direction -1 -4.49009e-011 3.6023e-026   
     length 0.599721   
     axis -2.29769e-014 -90 -90   XYZ
    dof rx
    limits (0.0 90.0)
  end
  begin
     id 30
     name rthumb
     direction -0.707107 -6.35025e-011 0.707107   
     length 0.861083   
     axis -90 -45 -5.37419e-014   XYZ
    dof rx rz
    limits (-45.0 45.0)
           (-45.0 45.0)
  end
:hierarchy
  begin
    root lhipjoint rhipjoint lowerback
    lhipjoint lfemur
    lfemur ltibia
    ltibia lfoot
    lfoot ltoes
    rhipjoint rfemur
    rfemur rtibia
    rtibia rfoot
    rfoot rtoes
    lowerback upperback
    upperback thorax
    thorax lowerneck lclavicle rclavicle
    lowerneck upperneck
    upperneck head
    lclavicle lhumerus
    lhumerus lradius
    lradius lwrist
    lwrist lhand lthumb
    lhand lfingers
    rclavicle rhumerus
    rhumerus rradius
    rradius rwrist
    rwrist rhand rthumb
    rhand rfingers
  end

#!OML:ASF H:\Martial Arts Walks\Project 1\Capture day 1\Session 1\male.ASF
:FULLY-SPECIFIED
:DEGREES
841
root -8.38214 15.0732 9.75718 11.457 64.0901 -2.85406
lowerback 22.8264 1.69134 -6.40701
upperback -0.747667 0.65187 0.836094
thorax -13.841 0.819057 4.4092
lowerneck 5.26445 -15.4677 -15.9596
upperneck -5.27568 -21.3178 21.3271
head 1.72002 -10.9893 8.2659
rclavicle -4.96962e-015 -1.59028e-015
rhumerus 5.98613 3.3134 -49.422
rradius 106.974
rwrist -34.1236
rhand -25.7489 -49.8937
rfingers 7.12502
rthumb 0.7883 -79.872
lclavicle -4.96962e-015 -1.59028e-015
lhumerus -37.5555 -26.7661 86.0634
lradius 113.424
lwrist 18.4048
lhand -7.8008 2.94429
lfingers 7.12502
lthumb 18.1005 32.1221
rfemur -53.1301 -8.90992 23.0128
rtibia 71.7067
rfoot -19.9845 -20.7307
rtoes -9.64766
lfemur -51.5359 5.77926 -1.95102
ltibia 90.8581
lfoot -12.085 15.2968
ltoes -4.60935
842
root -8.38008 15.1528 9.97479 9.49911 64.7422 -4.68166
lowerback 22.7375 1.82809 -6.52886
upperback -0.74569 0.816557 0.912477
thorax -13.8133 0.905456 4.51042
lowerneck 5.43528 -15.5769 -15.8657
upperneck -4.97362 -21.5202 21.3484
head 1.80818 -11.0947 8.23761
rclavicle 1.55052e-014 7.15625e-015
rhumerus 5.7956 3.28814 -48.3149
rradius 107.768
rwrist -36.4354
rhand -25.4471 -50.4022
rfingers 7.12502
rthumb 1.07972 -80.3792
lclavicle 1.55052e-014 7.15625e-015
lhumerus -37.8607 -26.7903 85.0874
lradius 113.235
lwrist 18.5783
lhand -6.79123 2.64568
lfingers 7.12502
lthumb 19.0716 31.7306
rfemur -51.507 -8.72546 24.5014
rtibia 70.5299
rfoot -19.8671 -21.169
rtoes -10.0408
lfemur -53.6628 5.3288 -3.9624
ltibia 92.571
lfoot -13.763 13.5822
ltoes -6.52281
843
root -8.3732 15.2283 10.2007 7.50223 65.4018 -6.53667
lowerback 22.5696 1.94671 -6.81456
upperback -0.737974 0.925133 1.03001
thorax -13.7318 0.978356 4.77304
lowerneck 5.46507 -15.7041 -15.8836
upperneck -4.3968 -21.7747 21.3611
head 2.01912 -11.2108 8.18889
rclavicle -2.46493e-014 3.97569e-016
rhumerus 5.66136 3.19565 -47.2533
rradius 108.486
rwrist -38.7559
rhand -24.9493 -50.7089
rfingers 7.12502
rthumb 1.56056 -80.683
lclavicle -2.46493e-014 3.97569e-016
lhumerus -37.9673 -26.8609 84.0581
lradius 112.863
lwrist 18.1646
lhand -6.48672 2.04865
lfingers 7.12502
lthumb 19.3644 31.1045
rfemur -49.9078 -8.41813 25.8452
rtibia 69.4603
rfoot -19.4921 -21.4298
rtoes -11.1716
lfemur -55.6309 4.65489 -6.17989
ltibia 93.7689
lfoot -15.2874 11.7805
ltoes -8.59972
844
root -8.35907 15.3088 10.4364 4.97641 66.1724 -8.86334
lowerback 22.4196 2.0613 -7.02296
upperback -0.741489 1.05335 1.18499
thorax -13.6774 1.05764 5.028
lowerneck 5.54 -15.8141 -15.8404
upperneck -3.74848 -22.0148 21.364
head 2.23309 -11.3203 8.13342
rclavicle 4.41302e-014 1.59028e-015
rhumerus 5.24867 3.052 -46.1721
rradius 109.306
rwrist -40.8862
rhand -24.8113 -51.0755
rfingers 7.12502
rthumb 1.69382 -81.0485
lclavicle 4.41302e-014 1.59028e-015
lhumerus -37.8355 -27.1463 82.9105
lradius 112.395
lwrist 17.5499
lhand -5.92493 1.33268
lfingers 7.12502
lthumb 19.9045 30.3333
rfemur -48.2035 -8.03679 27.1776
rtibia 68.5435
rfoot -19.166 -21.3755
rtoes -12.927
lfemur -57.2323 3.62386 -8.25675
ltibia 94.4223
lfoot -16.9145 9.5544
ltoes -9.85607
845
root -8.34132 15.3734 10.6737 2.75765 66.9959 -10.8175
lowerback 22.2587 2.09646 -7.48135
upperback -0.733296 1.01258 1.34109
thorax -13.5852 1.07641 5.48675
lowerneck 5.43912 -15.899 -15.9819
upperneck -2.86005 -22.2476 21.3687
head 2.56543 -11.4086 8.07637
rclavicle -2.90226e-014 -6.36111e-015
rhumerus 4.95305 2.96037 -45.1841
rradius 110.017
rwrist -42.6522
rhand -24.4682 -51.2504
rfingers 7.12502
rthumb 2.02522 -81.2205
lclavicle -2.90226e-014 -6.36111e-015
lhumerus -37.4413 -27.245 81.6338
lradius 111.822
lwrist 16.5547
lhand -5.03402 0.51214
lfingers 7.12502
lthumb 20.7607 29.4216
rfemur -46.6615 -7.99383 28.163
rtibia 67.9616
rfoot -19.1651 -20.4426
rtoes -15.7705
lfemur -58.5646 2.30543 -10.5891
ltibia 94.5815
lfoot -18.4099 7.19634
ltoes -11.4903
846
root -8.32378 15.4162 10.9184 -0.341318 67.6853 -13.7414
lowerback 21.9749 2.13496 -7.87055
upperback -0.714211 1.02659 1.64554
thorax -13.4201 1.11858 6.05846
lowerneck 5.36891 -15.9484 -16.1555
upperneck -1.9896 -22.4368 21.3838
head 2.88589 -11.4768 8.03726
rclavicle -1.05356e-014 -3.18055e-015
rhumerus 4.63326 2.87386 -44.2086
rradius 110.759
rwrist -43.9613
rhand -24.4064 -51.467
rfingers 7.12502
rthumb 2.08489 -81.4366
lclavicle -1.05356e-014 -3.18055e-015
lhumerus -36.9263 -27.4288 80.1936
lradius 111.293
lwrist 15.2368
lhand -4.74823 -0.550431
lfingers 7.12502
lthumb 21.0353 28.3287
rfemur -45.2057 -7.35778 29.3579
rtibia 67.6868
rfoot -18.0025 -20.0625
rtoes -20.9595
lfemur -59.7082 1.23584 -12.5217
ltibia 94.2996
lfoot -19.902 4.50772
ltoes -12.73
847
root -8.3021 15.4492 11.1598 -4.0261 68.345 -17.2692
lowerback 21.7797 2.09829 -7.94278
upperback -0.752724 1.00975 1.90943
thorax -13.3592 1.12788 6.41114
lowerneck 5.36973 -15.9652 -16.3153
upperneck -1.12158 -22.592 21.4517
head 3.19452 -11.532 8.02546
rclavicle 2.38542e-015 -3.18055e-015
rhumerus 4.06575 2.76703 -43.3687
rradius 111.535
rwrist -44.7379
rhand -24.5474 -51.6155
rfingers 7.12502
rthumb 1.9487 -81.5863
lclavicle 2.38542e-015 -3.18055e-015
lhumerus -36.2409 -27.7501 78.5308
lradius 110.756
lwrist 13.793
lhand -4.41307 -1.6456
lfingers 7.12502
lthumb 21.3572 27.1974
rfemur -44.0809 -7.04278 30.7127
rtibia 67.9385
rfoot -16.4571 -18.8015
rtoes -25.0147
lfemur -60.4823 0.184216 -14.2316
ltibia 93.4914
lfoot -21.1687 1.7849
ltoes -13.0489
848
root -8.27398 15.4928 11.4121 -7.55167 68.881 -20.533
lowerback 21.429 2.07613 -8.30211
upperback -0.695075 0.955101 2.1705
thorax -13.096 1.12721 6.93756
lowerneck 5.29802 -15.986 -16.4849
upperneck -0.267748 -22.7428 21.452
head 3.50352 -11.5804 7.99047
rclavicle 1.03368e-014 -7.95139e-016
rhumerus 3.52873 2.55242 -42.4958
rradius 112.316
rwrist -44.9705
rhand -24.2603 -51.3523
rfingers 7.12502
rthumb 2.22594 -81.3204
lclavicle 1.03368e-014 -7.95139e-016
lhumerus -35.3005 -28.0207 76.6978
lradius 110.174
lwrist 12.3595
lhand -4.39692 -2.48008
lfingers 7.12502
lthumb 21.3728 26.3612
rfemur -43.3426 -6.85063 31.8755
rtibia 68.7106
rfoot -15.2622 -16.5537
rtoes -27.6156
lfemur -60.4841 -0.698564 -15.9542
ltibia 91.911
lfoot -22.045 -0.507753
ltoes -13.9668
849
root -8.24029 15.5437 11.6615 -11.0774 69.2027 -23.7993
lowerback 20.9357 1.95348 -8.69698
upperback -0.57229 0.77845 2.4534
thorax -12.6506 1.05999 7.54564
lowerneck 5.14395 -15.8824 -16.7611
upperneck 0.522337 -22.7131 21.4584
head 3.78756 -11.5374 7.99372
rclavicle 6.75868e-015 1.98785e-014
rhumerus 3.24782 2.52676 -41.6967
rradius 113.119
rwrist -44.7443
rhand -24.3272 -51.4342
rfingers 7.12502
rthumb 2.16136 -81.403
lclavicle 6.75868e-015 1.98785e-014
lhumerus -34.31 -27.9437 74.6651
lradius 109.678
lwrist 11.1433
lhand -4.43631 -3.16954
lfingers 7.12502
lthumb 21.3349 25.676
rfemur -43.0666 -7.16254 33.0032
rtibia 70.011
rfoot -14.2786 -12.7491
rtoes -27.9276
lfemur -59.8779 -1.34939 -17.4801
ltibia 89.6919
lfoot -22.3541 -1.91247
ltoes -14.6548
850
root -8.197 15.6143 11.9065 -15.1941 69.0811 -27.5192
lowerback 20.5313 1.91435 -8.77515
upperback -0.390683 0.788392 2.74143
thorax -12.2173 1.05411 7.91277
lowerneck 5.09253 -15.7684 -17.1646
upperneck 1.16783 -22.6843 21.6662
head 4.05485 -11.5059 8.08994
rclavicle -5.1684e-015 1.11319e-014
rhumerus 2.75067 2.40313 -40.9351
rradius 113.86
rwrist -44.0375
rhand -24.5205 -50.9984
rfingers 7.12502
rthumb 1.97471 -80.969
lclavicle -5.1684e-015 1.11319e-014
lhumerus -33.2707 -28.0471 72.3727
lradius 109.396
lwrist 10.4715
lhand -4.74251 -3.4441
lfingers 7.12502
lthumb 21.0408 25.4344
rfemur -42.9367 -7.41204 34.1225
rtibia 71.7206
rfoot -13.3802 -6.91006
rtoes -22.8863
lfemur -58.4444 -1.63281 -18.4482
ltibia 86.7788
lfoot -21.8313 -2.82464
ltoes -14.8149
851
root -8.15021 15.678 12.1422 -19.1764 68.517 -31.1497
lowerback 19.9996 1.84467 -8.79299
upperback -0.137566 0.789279 3.06517
thorax -11.6284 1.02915 8.28351
lowerneck 4.84927 -15.5894 -17.3459
upperneck 1.71906 -22.506 21.719
head 4.2505 -11.3912 8.12156
rclavicle 5.32743e-014 3.18055e-015
rhumerus 2.48989 2.35398 -40.3599
rradius 114.459
rwrist -42.9903
rhand -24.493 -50.4596
rfingers 7.12502
rthumb 2.00121 -80.43
lclavicle 5.32743e-014 3.18055e-015
lhumerus -32.0285 -27.7875 69.9535
lradius 109.026
lwrist 10.3772
lhand -4.95917 -3.44708
lfingers 7.12502
lthumb 20.8326 25.4545
rfemur -43.0675 -7.78919 35.2029
rtibia 73.4841
rfoot -10.8353 -0.647504
rtoes -18.4877
lfemur -56.7214 -1.62289 -18.9004
ltibia 83.5271
lfoot -20.595 -3.49697
ltoes -13.5251
852
root -8.09723 15.7793 12.3647 -22.5778 67.7052 -34.2034
lowerback 19.4768 1.69602 -8.76123
upperback 0.0279549 0.680432 3.31623
thorax -11.1219 0.952262 8.57333
lowerneck 4.5792 -15.3111 -17.5481
upperneck 2.47046 -22.2126 21.7287
head 4.48362 -11.2139 8.15728
rclavicle 3.57812e-015 -4.13472e-014
rhumerus 2.21349 2.54082 -40.0202
rradius 114.87
rwrist -41.6744
rhand -24.4673 -49.4657
rfingers 7.12502
rthumb 2.02605 -79.4358
lclavicle 3.57812e-015 -4.13472e-014
lhumerus -31.2028 -27.4116 67.3932
lradius 108.948
lwrist 11.0248
lhand -5.36074 -3.35407
lfingers 7.12502
lthumb 20.4468 25.5894
rfemur -43.4023 -7.41446 35.3071
rtibia 75.64
rfoot -4.85825 6.61264
rtoes 15.4407
lfemur -54.4555 -1.89633 -18.5141
ltibia 79.6553
lfoot -19.4133 -4.95771
ltoes -16.1406
853
root -8.03619 15.838 12.5904 -26.3845 66.8185 -37.2082
lowerback 19.2434 1.66252 -8.58888
upperback 0.38413 0.741584 3.59095
thorax -10.5979 0.941426 8.75723
lowerneck 4.54673 -15.1392 -17.308
upperneck 2.68356 -21.9747 21.496
head 4.44684 -11.0894 8.08513
rclavicle -1.63003e-014 -1.27222e-014
rhumerus 1.55035 2.52546 -39.5009
rradius 115.232
rwrist -40.0029
rhand -24.8453 -48.299
rfingers 7.12502
rthumb 1.66093 -78.2723
lclavicle -1.63003e-014 -1.27222e-014
lhumerus -29.9295 -26.9812 64.8817
lradius 108.707
lwrist 12.0115
lhand -5.72008 -2.97673
lfingers 7.12502
lthumb 20.1014 26.0034
rfemur -43.0005 -7.24614 35.3313
rtibia 77.2855
rfoot -1.39187 10.8237
rtoes 8.67857
lfemur -51.7862 -2.76967 -17.2999
ltibia 76.1053
lfoot -16.1168 -10.3073
ltoes -14.9044
